<svg width="512" height="512" viewBox="0 0 512 512" fill="none" xmlns="http://www.w3.org/2000/svg">
<path fill-rule="evenodd" clip-rule="evenodd" d="M5.85781 270.144C-1.9526 262.333 -1.9526 249.67 5.85781 241.859L241.855 5.85791C249.665 -1.95264 262.328 -1.95264 270.139 5.85791L506.136 241.859C513.946 249.67 513.946 262.333 506.136 270.144L270.139 506.145C262.328 513.955 249.665 513.955 241.855 506.145L5.85781 270.144ZM64.8578 263.366C60.9526 259.461 60.9525 253.129 64.8578 249.224L79.9152 234.166C83.8204 230.261 90.1521 230.261 94.0574 234.166L171.665 311.774L227.119 256.32L149.511 178.713C145.606 174.808 145.606 168.476 149.511 164.571L164.569 149.514C168.474 145.608 174.806 145.608 178.711 149.514L256.319 227.121L333.926 149.514C337.832 145.608 344.163 145.608 348.069 149.514L363.126 164.571C367.031 168.476 367.031 174.808 363.126 178.713L285.518 256.32L340.972 311.774L418.58 234.166C422.485 230.261 428.817 230.261 432.722 234.166L447.78 249.224C451.685 253.129 451.685 259.461 447.78 263.366L363.702 347.443C363.52 347.658 363.328 347.867 363.126 348.069L348.069 363.126C347.866 363.329 347.657 363.521 347.442 363.702L279.048 432.096C278.867 432.311 278.675 432.52 278.472 432.722L263.415 447.779C261.455 449.74 258.883 450.716 256.313 450.708C253.747 450.713 251.18 449.737 249.222 447.779L234.165 432.722C233.963 432.52 233.771 432.311 233.589 432.096L165.195 363.702C164.98 363.52 164.771 363.329 164.569 363.126L149.511 348.069C149.309 347.867 149.117 347.658 148.936 347.443L64.8578 263.366ZM311.773 340.973L256.319 285.519L200.865 340.973L256.319 396.426L311.773 340.973Z" fill="#00A56E"/>
</svg>
